<?xml version="1.0" encoding="UTF-8" standalone="yes"?><svg xmlns="http://www.w3.org/2000/svg" xmlns:xlink="http://www.w3.org/1999/xlink" version="1.2" baseProfile="tiny-ps" viewBox="0 0 300 300"><title>Flexpilot AI</title><g><g fill="#feffff" transform="matrix(.1 0 0 -.1 0 300)"><path d="M0 1500V0h3000v3000H0V1500z"></path></g><g fill="#b2c3f6" transform="matrix(.1 0 0 -.1 0 300)"><path d="m1960 2750-35-19-562-563-562-563-16-37c-8-21-15-52-15-70v-33l19-40 18-41 32-27 32-26 37-11c46-12 48-12 97 1l40 11 574 571 573 572 19 40 19 40v33c0 37-23 97-48 125-9 11-34 28-54 38l-37 19h-48l-48-1-35-19zm5-874-30-14-352-354-352-353-11-28c-13-36-13-98 1-134l10-28 352-354 352-353 32-14 32-14h93l40 22 40 23 23 40c12 22 25 52 29 67l6 28-11 47-12 48-276 278-275 277 266 268 266 267 16 32 16 32v102l-14 27c-34 65-97 102-169 102l-42-1-30-13z"></path></g><g fill="#7280ed" transform="matrix(.1 0 0 -.1 0 300)"><path d="m1975 2751-40-19-572-573-572-574-6-30-11-44c-6-20 16-92 38-124l20-27 38-20 39-20h92l37 19 37 20 566 568 566 568 12 48 12 48-11 40-11 40-34 38-34 38-39 11c-54 16-80 15-127-7zm5-873-35-10-343-341c-189-188-351-355-362-372-10-16-21-46-25-66l-7-36 12-44 12-44 346-348 347-348 41-19 40-20h69l41 19 41 19 28 36 27 35 5 40c3 22 2 57-2 78l-6 38-282 283-282 282 272 273 272 272 16 37c8 21 15 52 15 70v33l-19 40c-39 86-123 121-221 93z"></path></g><g fill="#0fa6ea" transform="matrix(.1 0 0 -.1 0 300)"><path d="M2004 2760c-18-4-45-16-60-28-16-11-280-272-586-579l-557-558-10-28c-6-16-11-46-11-68v-40l14-32 13-32 36-32 36-32 44-6 43-7 40 11 39 11 582 582 582 583 7 38c3 21 4 56 1 78l-5 40-27 34c-42 56-114 82-181 65zm-24-881-35-10-357-357-356-357-12-44-11-43 11-49 12-48 354-353c195-194 367-359 382-367l27-15h103l40 26 40 27 21 43 21 44v32c0 18-7 49-15 70l-16 37-272 273-272 272 272 273 272 272 16 37c8 21 15 52 15 70v33l-19 42-19 42-39 25-39 26-44 5-45 4-35-10z"></path></g><g fill="#2462eb" transform="matrix(.1 0 0 -.1 0 300)"><path d="M2004 2760c-18-4-45-16-60-28-16-11-280-272-586-579l-557-558-10-28c-6-16-11-46-11-68v-40l14-32 13-32 36-32 36-32 44-6 43-7 40 11 39 11 582 582 582 583 7 38c3 21 4 56 1 78l-5 40-27 34c-42 56-114 82-181 65zM1570 984l-75-76-32-14c-38-17-91-18-130-4l-28 11 315-316 315-316 30-17 30-16h103l40 26 40 27 21 43 21 44v69l-19 40-19 40-269 268-268 267-75-76z"></path></g><g fill="#4e46e5" transform="matrix(.1 0 0 -.1 0 300)"><path d="M2004 2760c-18-4-45-16-60-28-16-11-280-272-586-579l-557-558-10-28c-6-16-11-46-11-68v-40l14-32 13-32 36-32 36-32 44-6 43-7 40 11 39 11 582 582 582 583 7 38c3 21 4 56 1 78l-5 40-27 34c-42 56-114 82-181 65z"></path></g></g></svg>